<svg width="1874" height="1761" viewBox="0 0 1874 1761" fill="none" xmlns="http://www.w3.org/2000/svg">
<path d="M620.988 16.2898C600.85 16.2898 679.118 198.746 959.394 195.328C1239.67 191.91 1268.99 14.0318 1250.96 14.0319M710.334 7.21928C700.801 2.22592 670.554 7.21924 650.416 7.21924C630.278 7.21924 729.37 144.994 959.394 147.872C1189.42 150.75 1241.22 7.21924 1223.19 7.21928C1205.16 7.21933 1161.72 7.21924 1161.72 7.21924C1161.72 7.21924 1083.37 42.7754 950.651 38.8695C817.931 34.9636 719.867 12.2126 710.334 7.21928Z" stroke="black" stroke-width="2"/>
<g filter="url(#filter0_b_124_104)">
<path fill-rule="evenodd" clip-rule="evenodd" d="M305.126 170.562L0 595.974L305.126 852.732L422.92 744.491V1761H1452.51V744.201L1546.12 852.732L1873.93 595.974L1578.85 170.562L1546.12 135.32L1222.84 0.221558C1222.84 0.221558 1180.92 157.058 937.056 143.51C693.196 129.962 645.778 0.221558 645.778 0.221558L340.367 135.32L305.126 170.562Z" fill="url(#paint0_linear_124_104)"/>
<path d="M664.089 0.221558H645.778C645.778 0.221558 693.196 129.962 937.056 143.51C1180.92 157.058 1222.84 0.221558 1222.84 0.221558H1159.91C1159.91 0.221558 1084.28 31.13 948.346 26.0956C812.415 21.0611 705.532 0.221558 705.532 0.221558H664.089Z" fill="url(#paint1_linear_124_104)"/>
</g>
<defs>
<filter id="filter0_b_124_104" x="-4" y="-3.77844" width="1881.93" height="1768.78" filterUnits="userSpaceOnUse" color-interpolation-filters="sRGB">
<feFlood flood-opacity="0" result="BackgroundImageFix"/>
<feGaussianBlur in="BackgroundImage" stdDeviation="2"/>
<feComposite in2="SourceAlpha" operator="in" result="effect1_backgroundBlur_124_104"/>
<feBlend mode="normal" in="SourceGraphic" in2="effect1_backgroundBlur_124_104" result="shape"/>
</filter>
<linearGradient id="paint0_linear_124_104" x1="938.21" y1="-5.64477" x2="28.2307" y2="1441.76" gradientUnits="userSpaceOnUse">
<stop stop-color="#7301A8"/>
<stop offset="1" stop-color="#0177A9"/>
</linearGradient>
<linearGradient id="paint1_linear_124_104" x1="957.378" y1="68.3012" x2="812.777" y2="218.045" gradientUnits="userSpaceOnUse">
<stop stop-color="#8D0088"/>
<stop offset="0.589054" stop-color="#0A0079"/>
</linearGradient>
</defs>
</svg>
