<svg width="488" height="499" viewBox="0 0 488 499" fill="none" xmlns="http://www.w3.org/2000/svg">
<path d="M246.001 77.145C150.373 77.145 72.9153 137.003 72.9153 210.926C71.9645 314.528 218.853 372.736 320.79 331.507C325.691 329.687 330.153 326.853 333.882 323.189C337.612 319.525 340.526 315.115 342.432 310.247C344.339 305.379 345.195 300.163 344.945 294.94C344.696 289.718 343.345 284.608 340.983 279.944C330.06 257.755 311.221 234.057 336.801 215.181C341.899 211.734 347.953 209.983 354.104 210.177C360.254 210.371 366.186 212.5 371.056 216.262L385.408 227.369C399.079 238.007 419.329 228.241 419.087 210.926C419.087 137.003 341.559 77.145 246.001 77.145ZM152.679 215.83C126.624 236.567 95.243 199.199 120.226 177.174C146.286 156.432 177.606 193.797 152.679 215.83ZM177.488 140.898C178.316 107.601 227.15 107.608 227.972 140.899C227.1 174.183 178.356 174.176 177.488 140.898L177.488 140.898ZM284.369 269.559C277.972 308.473 201.777 298.592 205.399 259.389C211.834 220.524 288.093 230.297 284.369 269.559ZM289.273 166.14C255.979 165.268 255.995 116.475 289.273 115.656C322.557 116.479 322.559 165.275 289.273 166.14Z" fill="url(#paint0_linear_256_3)"/>
<path d="M200.5 187.85C267.373 187.85 319.754 207.915 319.754 233.531M187.05 192.73C191.449 192.546 195.959 192.45 200.5 192.45C262.645 192.45 315.151 211.265 315.151 233.528" stroke="url(#paint1_linear_256_3)" stroke-width="13"/>
<path d="M225.777 278.189C225.839 278.189 225.904 278.186 225.966 278.18C226.756 278.118 227.537 278.044 228.315 277.976L229.452 277.875C230.213 277.807 230.889 277.368 231.263 276.703C231.633 276.041 231.65 275.232 231.314 274.55C230.889 273.701 229.978 273.181 229.036 273.283L228.742 273.311C228.465 273.339 228.185 273.368 227.907 273.39L225.582 273.591C224.32 273.704 223.383 274.816 223.491 276.081C223.587 277.28 224.594 278.189 225.777 278.189Z" fill="url(#paint2_linear_256_3)"/>
<path d="M137.659 199.303C105.654 206.967 85.8489 220.019 85.8489 233.528C85.8489 253.625 128.472 271.169 183.671 274.148L137.659 199.303Z" fill="url(#paint3_linear_256_3)"/>
<path d="M112.854 264.738C92.4695 256.381 81.2429 245.295 81.2429 233.531C81.2429 217.294 102.547 202.681 138.23 194.445C161 189.189 237 180 140.709 195.483M137.659 199.303C105.654 206.967 85.8489 220.019 85.8489 233.528C85.8489 253.625 128.472 271.169 183.671 274.148L137.659 199.303Z" stroke="url(#paint4_linear_256_3)" stroke-width="13"/>
<path d="M319.751 291V233.528C319.751 232.258 318.722 231.228 317.451 231.228C316.178 231.228 315.148 232.258 315.148 233.528C315.148 255.798 262.645 274.607 200.5 274.607C138.352 274.607 85.8489 255.795 85.8489 233.528C85.8489 232.258 84.8191 231.228 83.5487 231.228C82.2784 231.228 81.2457 232.258 81.2457 233.528V423.568C81.2457 446.848 100.188 465.79 123.464 465.79H253M253.003 461.184H123.464C102.726 461.184 85.8517 444.31 85.8517 423.568V246.382C100.012 265.55 145.329 279.21 200.503 279.21C255.677 279.21 300.99 265.547 315.151 246.382L315.148 291" stroke="url(#paint5_linear_256_3)" stroke-width="13"/>
<path d="M215.795 355.159C203.966 355.159 194.341 345.534 194.341 333.705V311.936C194.341 302.645 186.781 295.088 177.489 295.088C168.195 295.088 160.635 302.645 160.635 311.936V315.736C160.635 327.565 151.01 337.19 139.181 337.19C127.352 337.19 117.726 327.565 117.726 315.736V264.99C117.726 264.243 118.089 263.541 118.697 263.111C119.305 262.678 120.092 262.574 120.793 262.817C142.386 270.422 170.693 274.604 200.497 274.604C226.985 274.604 251.917 271.376 272.601 265.27C273.297 265.069 274.047 265.199 274.63 265.638C275.213 266.068 275.552 266.752 275.552 267.474V295.393C275.552 304.605 268.063 312.092 258.854 312.092C246.94 312.092 237.247 321.785 237.247 333.702C237.25 345.534 227.624 355.159 215.795 355.159ZM270.952 270.532C250.457 276.214 226.179 279.207 200.5 279.207C171.571 279.207 143.977 275.311 122.33 268.204V315.733C122.33 325.022 129.892 332.584 139.184 332.584C148.475 332.584 156.038 325.022 156.038 315.733V311.933C156.038 300.104 165.66 290.479 177.492 290.479C189.321 290.479 198.947 300.104 198.947 311.933V333.702C198.947 342.993 206.507 350.553 215.798 350.553C225.092 350.553 232.652 342.993 232.652 333.702C232.652 319.247 244.41 307.488 258.862 307.488C265.531 307.488 270.958 302.065 270.958 295.393V270.532" fill="url(#paint6_linear_256_3)"/>
<path d="M270.952 270.532C250.457 276.214 226.179 279.207 200.5 279.207C171.571 279.207 143.977 275.311 122.33 268.204V315.733C122.33 325.022 129.892 332.584 139.184 332.584C148.475 332.584 156.038 325.022 156.038 315.733V311.933C156.038 300.104 165.66 290.479 177.492 290.479C189.321 290.479 198.947 300.104 198.947 311.933V333.702C198.947 342.993 206.507 350.553 215.798 350.553C225.092 350.553 232.652 342.993 232.652 333.702C232.652 319.247 244.41 307.488 258.862 307.488C265.531 307.488 270.958 302.065 270.958 295.393V270.532M215.795 355.159C203.966 355.159 194.341 345.534 194.341 333.705V311.936C194.341 302.645 186.781 295.088 177.489 295.088C168.195 295.088 160.635 302.645 160.635 311.936V315.736C160.635 327.565 151.01 337.19 139.181 337.19C127.352 337.19 117.726 327.565 117.726 315.736V264.99C117.726 264.243 118.089 263.541 118.697 263.111C119.305 262.678 120.092 262.574 120.793 262.817C142.386 270.422 170.693 274.604 200.497 274.604C226.985 274.604 251.917 271.376 272.601 265.27C273.297 265.069 274.047 265.199 274.63 265.638C275.213 266.068 275.552 266.752 275.552 267.474V295.393C275.552 304.605 268.063 312.092 258.854 312.092C246.94 312.092 237.247 321.785 237.247 333.702C237.25 345.534 227.624 355.159 215.795 355.159Z" stroke="url(#paint7_linear_256_3)" stroke-width="13"/>
<path d="M470.31 379.42C470.306 379.012 470.224 378.608 470.07 378.23C470.07 378.23 470.07 378.17 470.01 378.13C469.903 377.872 469.762 377.63 469.59 377.41L436.27 335.52C435.946 335.115 435.535 334.788 435.068 334.563C434.6 334.339 434.089 334.221 433.57 334.22H416.31L428.67 295.22C428.867 294.599 428.884 293.936 428.719 293.306C428.555 292.676 428.215 292.105 427.74 291.66C421.28 285.59 378.74 273.41 353.06 270.3C340.5 268.77 334.31 269.95 332.35 274.3C332.208 274.662 332.101 275.037 332.03 275.42L331.94 275.73C331.765 276.818 331.868 277.933 332.24 278.97L334 289.61C327.76 288.78 321.51 287.75 317 287.01C314.14 286.53 311.34 286.07 308.65 285.65C307.65 285.49 306.75 285.39 305.84 285.3C304.685 285.035 303.491 284.991 302.32 285.17C297.09 285.24 293.08 286.68 290.32 289.51C285.67 294.38 287 301.2 287.06 301.51C287.111 301.757 287.188 301.999 287.29 302.23L301.55 334.23H286.43C285.911 334.23 285.399 334.346 284.931 334.572C284.464 334.797 284.053 335.124 283.73 335.53L250.41 377.41C250.238 377.63 250.097 377.872 249.99 378.13C249.99 378.13 249.99 378.2 249.93 378.23C249.776 378.608 249.694 379.012 249.69 379.42C249.685 379.467 249.685 379.513 249.69 379.56V468.87C249.689 469.324 249.777 469.774 249.95 470.193C250.122 470.613 250.376 470.995 250.697 471.316C251.017 471.637 251.398 471.892 251.817 472.066C252.237 472.24 252.686 472.33 253.14 472.33H466.89C467.344 472.33 467.793 472.24 468.213 472.066C468.632 471.892 469.013 471.637 469.333 471.316C469.654 470.995 469.907 470.613 470.08 470.193C470.253 469.774 470.341 469.324 470.34 468.87V379.56C470.335 379.512 470.325 379.465 470.31 379.42ZM409.45 355.86C410.419 356.137 411.37 356.471 412.3 356.86C411.152 357.316 409.976 357.7 408.78 358.01L409.45 355.86ZM352.23 277.17C377.9 280.29 412.58 290.88 421.31 295.59L401.01 359.59C390.373 361.205 379.638 362.091 368.88 362.24C369.88 356.81 371.88 344.98 376.19 318.58C376.29 317.698 376.047 316.811 375.511 316.103C374.976 315.395 374.189 314.92 373.313 314.776C372.437 314.632 371.539 314.831 370.805 315.33C370.071 315.83 369.557 316.592 369.37 317.46C364.57 346.9 362.63 358.11 361.84 362.33H360C358.8 362.33 357.63 362.33 356.46 362.33L363.46 291.57C363.732 290.759 363.83 289.901 363.749 289.05C363.668 288.199 363.41 287.375 362.99 286.63C359.78 281 346.51 278.82 339.71 278.06C339.458 277.768 339.233 277.454 339.04 277.12C340.14 276.74 343.5 276.1 352.23 277.17ZM340.29 285.17C347.81 286.17 354.93 288.17 356.65 289.78C355 291.31 348.65 291.2 341.18 290.47L340.29 285.17ZM295.47 294.25C297.15 292.52 300.34 291.82 304.73 292.14C305.358 292.333 305.945 292.642 306.46 293.05C308.89 294.92 313.21 300.7 314.82 318.37C314.897 319.229 315.293 320.027 315.93 320.608C316.567 321.189 317.398 321.511 318.26 321.51H318.58C319.491 321.426 320.331 320.984 320.916 320.281C321.502 319.578 321.783 318.671 321.7 317.76C320.7 307.28 318.7 299.3 315.7 293.76H315.96C334.41 296.76 348.01 298.76 355.96 297.11L349.57 362.17C339.902 361.945 330.255 361.15 320.68 359.79L293.95 299.79C293.81 298.9 293.68 296.1 295.47 294.25ZM312.39 358.25C310.783 357.889 309.205 357.408 307.67 356.81C308.825 356.336 310.011 355.942 311.22 355.63L312.39 358.25ZM288.1 341.13H304.74L308.38 349.29C303.5 350.73 299.3 352.86 299.3 356.81C299.3 366.73 333.35 368.81 352.08 369.21C352.16 369.21 352.23 369.27 352.31 369.28H352.65C352.77 369.28 352.88 369.23 353.01 369.22C355.76 369.22 358.16 369.28 360.01 369.28C361.31 369.28 362.88 369.28 364.65 369.28C382.34 369.06 420.65 367.35 420.65 356.83C420.65 352.83 416.43 350.73 411.49 349.29L414.07 341.15H431.9L459.72 376.15H260.28L288.1 341.13ZM463.43 465.42H256.57V383H463.43V465.42Z" fill="url(#paint8_linear_256_3)"/>
<path d="M373.79 311.89C374.7 312.04 375.632 311.824 376.382 311.287C377.132 310.751 377.638 309.939 377.79 309.03L378.51 304.61C378.582 304.162 378.566 303.705 378.461 303.263C378.356 302.822 378.166 302.405 377.9 302.038C377.635 301.67 377.299 301.358 376.913 301.12C376.527 300.882 376.098 300.722 375.65 300.65C375.202 300.578 374.745 300.594 374.303 300.699C373.862 300.804 373.445 300.994 373.078 301.26C372.71 301.525 372.398 301.861 372.16 302.247C371.922 302.633 371.762 303.062 371.69 303.51L370.97 307.92C370.825 308.819 371.039 309.74 371.567 310.483C372.094 311.226 372.893 311.731 373.79 311.89Z" fill="url(#paint9_linear_256_3)"/>
<path d="M151.193 220.084C139.352 237.434 176.685 217.653 161.5 243.5C155.848 253.124 161.962 273.35 182.5 256C186.866 252.312 192.011 253.63 195.168 249.005C202.805 237.816 197.448 224.763 185.306 216.776C174.506 209.673 161.971 208.971 153.959 216.776C152.963 217.746 152.037 218.847 151.193 220.084ZM289.31 62.6249C280.301 56.7049 210.018 140.124 189.988 169.478C180.048 184.043 177.213 191.36 174.392 196.971C173.164 199.407 175.466 199.632 176.543 199.937C181.922 201.459 185.797 203.102 191.075 206.572C196.354 210.041 199.377 212.936 202.856 217.238C203.553 218.101 204.642 220.107 206.467 218.07C210.683 213.373 216.494 208.016 226.434 193.449C246.466 164.094 298.313 68.5484 289.31 62.6249Z" fill="url(#paint10_linear_256_3)"/>
<defs>
<linearGradient id="paint0_linear_256_3" x1="246" y1="77.145" x2="246" y2="344.855" gradientUnits="userSpaceOnUse">
<stop stop-color="#8D0077"/>
<stop offset="1" stop-color="#030093"/>
</linearGradient>
<linearGradient id="paint1_linear_256_3" x1="253.402" y1="187.85" x2="253.402" y2="233.531" gradientUnits="userSpaceOnUse">
<stop stop-color="#98CDDE"/>
<stop offset="1" stop-color="#BB8AC4"/>
</linearGradient>
<linearGradient id="paint2_linear_256_3" x1="227.518" y1="273.27" x2="227.518" y2="278.189" gradientUnits="userSpaceOnUse">
<stop stop-color="#98CDDE"/>
<stop offset="1" stop-color="#BB8AC4"/>
</linearGradient>
<linearGradient id="paint3_linear_256_3" x1="134.75" y1="186.909" x2="134.75" y2="274.148" gradientUnits="userSpaceOnUse">
<stop stop-color="#98CDDE"/>
<stop offset="1" stop-color="#BB8AC4"/>
</linearGradient>
<linearGradient id="paint4_linear_256_3" x1="134.75" y1="186.909" x2="134.75" y2="274.148" gradientUnits="userSpaceOnUse">
<stop stop-color="#98CDDE"/>
<stop offset="1" stop-color="#BB8AC4"/>
</linearGradient>
<linearGradient id="paint5_linear_256_3" x1="200.499" y1="231.228" x2="200.499" y2="465.79" gradientUnits="userSpaceOnUse">
<stop stop-color="#98CDDE"/>
<stop offset="1" stop-color="#BB8AC4"/>
</linearGradient>
<linearGradient id="paint6_linear_256_3" x1="196.639" y1="262.688" x2="196.639" y2="355.159" gradientUnits="userSpaceOnUse">
<stop stop-color="#98CDDE"/>
<stop offset="1" stop-color="#BB8AC4"/>
</linearGradient>
<linearGradient id="paint7_linear_256_3" x1="196.639" y1="262.688" x2="196.639" y2="355.159" gradientUnits="userSpaceOnUse">
<stop stop-color="#98CDDE"/>
<stop offset="1" stop-color="#BB8AC4"/>
</linearGradient>
<linearGradient id="paint8_linear_256_3" x1="360.013" y1="269.662" x2="360.013" y2="472.33" gradientUnits="userSpaceOnUse">
<stop stop-color="#00B2FF"/>
<stop offset="1" stop-color="#8F00FF"/>
</linearGradient>
<linearGradient id="paint9_linear_256_3" x1="374.74" y1="300.606" x2="374.74" y2="311.937" gradientUnits="userSpaceOnUse">
<stop stop-color="#00B2FF"/>
<stop offset="1" stop-color="#8F00FF"/>
</linearGradient>
<linearGradient id="paint10_linear_256_3" x1="196.58" y1="80.3581" x2="232.649" y2="262.87" gradientUnits="userSpaceOnUse">
<stop stop-color="#00FFFF"/>
<stop offset="1" stop-color="#001AFF"/>
</linearGradient>
</defs>
</svg>
