<svg width="334" height="205" viewBox="0 0 334 205" fill="none" xmlns="http://www.w3.org/2000/svg">
<path d="M333.888 186.11L333.902 196.989C333.904 199.112 333.062 201.15 331.562 202.653C330.061 204.155 328.025 205 325.901 205H89.6512C87.4671 205 85.3767 204.106 83.8678 202.527L81.9774 200.548C76.606 194.927 71.1019 190.159 65.6913 186.11H333.888Z" fill="url(#paint0_linear_24_98)"/>
<path d="M6.26339 152.641L12.3556 153.998C18.1181 155.281 34.3593 159.746 52.375 172.071H333.844L333.818 150.788C333.815 148.938 333.172 147.148 331.999 145.719L330.548 143.951C328.13 141.007 314.938 125.287 292.762 104.916C276.842 90.2934 260.017 76.8458 242.759 64.9472L242.358 64.6703L242.178 64.2175C234.874 45.7403 219.391 35.5641 198.579 35.5641C197.075 35.5641 195.524 35.6169 193.968 35.7225L193.534 35.7521L193.146 35.5577C145.885 11.9635 97.3866 0 48.9997 0C45.9124 0 42.7764 0.0496058 39.6803 0.147208L34.5849 0.308809C30.8592 0.427211 27.708 3.10408 26.9895 6.76176L0.15123 143.289C-0.684792 147.549 2.02728 151.698 6.26339 152.641ZM44.574 83.7588L51.4886 41.1586C52.6342 34.1032 59.1624 29.2223 66.2522 30.1119C108.912 35.4785 141.497 44.2987 163.097 56.3277C189.455 71.0049 192.538 86.6853 192.031 94.7255C191.809 98.2464 190.193 101.534 187.544 103.864C185.115 105.999 181.995 107.167 178.782 107.167C178.49 107.167 178.198 107.155 177.904 107.137L56.8047 99.1344C53.0726 98.888 49.6181 97.0791 47.2893 94.1511C44.9612 91.223 43.9756 87.4501 44.574 83.7588Z" fill="url(#paint1_linear_24_98)"/>
<path d="M89.0472 85.1137C89.1336 83.9817 89.6656 82.9305 90.528 82.1912C91.3888 81.452 92.5105 81.0864 93.6417 81.1712L133.305 84.0857C134.438 84.1713 135.488 84.7041 136.228 85.5657C136.968 86.4273 137.335 87.5482 137.248 88.6802L136.808 94.4419C136.638 96.6884 134.761 98.3972 132.545 98.3972C132.436 98.3972 132.326 98.3932 132.216 98.3844L92.5521 95.4699C90.1952 95.2899 88.4296 93.2339 88.6088 90.8762L89.0472 85.1137Z" fill="url(#paint2_linear_24_98)"/>
<defs>
<linearGradient id="paint0_linear_24_98" x1="199.796" y1="186.11" x2="199.796" y2="205" gradientUnits="userSpaceOnUse">
<stop stop-color="#66FFFF"/>
<stop offset="1" stop-color="#043BFF"/>
</linearGradient>
<linearGradient id="paint1_linear_24_98" x1="166.922" y1="0" x2="166.922" y2="172.071" gradientUnits="userSpaceOnUse">
<stop stop-color="#66FFFF"/>
<stop offset="1" stop-color="#043BFF"/>
</linearGradient>
<linearGradient id="paint2_linear_24_98" x1="112.928" y1="81.1592" x2="112.928" y2="98.3972" gradientUnits="userSpaceOnUse">
<stop stop-color="#66FFFF"/>
<stop offset="1" stop-color="#043BFF"/>
</linearGradient>
</defs>
</svg>
