<svg width="314" height="300" viewBox="0 0 314 300" fill="none" xmlns="http://www.w3.org/2000/svg">
<path d="M157.001 54.8428C85.8462 54.8428 28.2119 97.3961 28.2119 149.947C27.5044 223.599 136.8 264.978 212.649 235.669C216.296 234.375 219.616 232.36 222.391 229.756C225.166 227.151 227.334 224.016 228.753 220.555C230.171 217.094 230.809 213.386 230.623 209.674C230.437 205.961 229.432 202.328 227.675 199.012C219.547 183.238 205.53 166.392 224.563 152.972C228.356 150.522 232.861 149.277 237.437 149.415C242.014 149.553 246.428 151.067 250.051 153.741L260.73 161.637C270.902 169.2 285.97 162.257 285.79 149.948C285.79 97.3961 228.103 54.8428 157.001 54.8428ZM161.093 209.674C161.093 229.756 121.731 230.767 125.376 209.674C129.021 188.58 161.093 192.299 161.093 209.674Z" fill="url(#paint0_linear_124_65)"/>
<g clip-path="url(#clip0_124_65)">
<path d="M124.076 112.868H116.79C115.933 111.094 115.004 108.91 114.004 106.316C113.004 103.586 112.004 100.788 111.004 97.922C110.147 94.9192 109.361 91.9163 108.647 88.9135C107.933 85.7741 107.433 82.8395 107.147 80.1097C112.576 76.9703 118.719 74.4452 125.576 72.5343C132.576 70.6234 141.434 69.668 152.149 69.668C158.577 69.668 164.292 70.5552 169.292 72.3296C174.435 73.9675 178.793 76.2879 182.364 79.2907C186.079 82.1571 188.864 85.6376 190.722 89.7324C192.722 93.8272 193.722 98.2632 193.722 103.04C193.722 109.183 192.507 114.438 190.079 118.805C187.65 123.173 184.65 127.063 181.078 130.476C177.507 133.751 173.578 136.822 169.292 139.689C165.149 142.419 161.22 145.422 157.506 148.697C153.934 151.837 150.934 155.386 148.506 159.344C146.077 163.302 144.863 168.148 144.863 173.88H137.791C135.791 167.602 135.005 162.21 135.434 157.706C136.005 153.065 137.22 148.902 139.077 145.217C140.934 141.531 143.22 138.187 145.934 135.185C148.649 132.182 151.22 129.111 153.649 125.971C156.22 122.832 158.363 119.488 160.078 115.939C161.935 112.39 162.863 108.295 162.863 103.655C162.863 101.061 162.506 98.5362 161.792 96.0793C161.22 93.486 160.149 91.2339 158.577 89.3229C157.149 87.412 155.22 85.9106 152.792 84.8187C150.506 83.5902 147.648 82.976 144.22 82.976C141.22 82.976 138.577 83.249 136.291 83.795C134.005 84.341 132.291 85.0234 131.148 85.8424L124.076 112.868Z" fill="black"/>
</g>
<defs>
<linearGradient id="paint0_linear_124_65" x1="157" y1="54.8428" x2="157" y2="245.158" gradientUnits="userSpaceOnUse">
<stop stop-color="#FF00D6"/>
<stop offset="1" stop-color="#0500FF"/>
</linearGradient>
<clipPath id="clip0_124_65">
<rect width="87.0569" height="148.578" fill="white" transform="translate(107.147 69.668)"/>
</clipPath>
</defs>
</svg>
