<svg width="474" height="414" viewBox="0 0 474 414" fill="none" xmlns="http://www.w3.org/2000/svg">
<path d="M138 86.5C133.541 86.5 150.872 126.903 212.936 126.146C275 125.389 281.493 86 277.5 86M157.785 84.4914C155.674 83.3857 148.976 84.4914 144.517 84.4914C140.057 84.4914 162 115 212.936 115.637C263.872 116.275 275.344 84.4914 271.35 84.4914C267.357 84.4914 257.738 84.4914 257.738 84.4914C257.738 84.4914 240.389 92.3649 211 91.5C181.611 90.6351 159.896 85.5972 157.785 84.4914Z" stroke="black" stroke-width="2"/>
<path fill-rule="evenodd" clip-rule="evenodd" d="M68.5665 121.99L1 216.193L68.5665 273.049L94.6507 249.08V413.5H322.641V249.016L343.37 273.049L415.96 216.193L350.617 121.99L343.37 114.187L271.784 84.2705C271.784 84.2705 262.5 119 208.5 116C154.5 113 144 84.2705 144 84.2705L76.3703 114.187L68.5665 121.99Z" fill="url(#paint0_linear_262_4)"/>
<path d="M148.055 84.2705H144C144 84.2705 154.5 113 208.5 116C262.5 119 271.784 84.2705 271.784 84.2705H257.848C257.848 84.2705 241.1 91.1148 211 90C180.9 88.8852 157.232 84.2705 157.232 84.2705H148.055Z" fill="url(#paint1_linear_262_4)"/>
<path d="M1 216.193L0.593703 215.901L0.323992 216.277L0.678072 216.575L1 216.193ZM68.5665 121.99L68.213 121.637L68.184 121.666L68.1602 121.699L68.5665 121.99ZM76.3703 114.187L76.168 113.729L76.0827 113.767L76.0167 113.833L76.3703 114.187ZM144 84.2705V83.7705H143.894L143.798 83.8132L144 84.2705ZM157.232 84.2705L157.328 83.7797L157.28 83.7705H157.232V84.2705ZM257.848 84.2705V83.7705H257.75L257.659 83.8077L257.848 84.2705ZM271.784 84.2705L271.976 83.8092L271.884 83.7705H271.784V84.2705ZM343.37 114.187L343.737 113.846L343.663 113.767L343.563 113.725L343.37 114.187ZM350.617 121.99L351.028 121.705L351.007 121.676L350.983 121.65L350.617 121.99ZM415.96 216.193L416.268 216.586L416.639 216.296L416.371 215.908L415.96 216.193ZM343.37 273.049L342.992 273.375L343.303 273.736L343.679 273.442L343.37 273.049ZM322.641 249.016L323.019 248.689L322.141 247.671V249.016H322.641ZM322.641 413.5V414H323.141V413.5H322.641ZM94.6507 413.5H94.1507V414H94.6507V413.5ZM94.6507 249.08H95.1507V247.942L94.3123 248.712L94.6507 249.08ZM68.5665 273.049L68.2446 273.431L68.581 273.714L68.9048 273.417L68.5665 273.049ZM1.4063 216.484L68.9728 122.282L68.1602 121.699L0.593703 215.901L1.4063 216.484ZM68.9201 122.344L76.7238 114.54L76.0167 113.833L68.213 121.637L68.9201 122.344ZM76.5725 114.644L144.202 84.7278L143.798 83.8132L76.168 113.729L76.5725 114.644ZM144 84.7705H148.055V83.7705H144V84.7705ZM148.055 84.7705H157.232V83.7705H148.055V84.7705ZM157.232 84.2705C157.136 84.7613 157.136 84.7613 157.137 84.7613C157.137 84.7614 157.137 84.7614 157.137 84.7615C157.138 84.7617 157.139 84.7619 157.141 84.7622C157.144 84.7628 157.148 84.7636 157.154 84.7648C157.166 84.767 157.183 84.7704 157.206 84.7748C157.253 84.7837 157.321 84.7968 157.412 84.8139C157.594 84.8482 157.864 84.8985 158.218 84.9629C158.926 85.0917 159.971 85.2767 161.318 85.5021C164.012 85.953 167.916 86.5655 172.762 87.2128C182.453 88.5073 195.912 89.9415 210.981 90.4997L211.019 89.5003C195.988 88.9437 182.563 87.5131 172.895 86.2216C168.061 85.5759 164.167 84.9651 161.483 84.5158C160.141 84.2912 159.101 84.107 158.397 83.979C158.045 83.9151 157.777 83.8651 157.598 83.8313C157.508 83.8143 157.44 83.8014 157.395 83.7927C157.372 83.7884 157.355 83.7851 157.344 83.783C157.338 83.7819 157.334 83.7811 157.331 83.7805C157.33 83.7803 157.329 83.7801 157.328 83.7799C157.328 83.7799 157.328 83.7798 157.328 83.7798C157.328 83.7798 157.328 83.7797 157.232 84.2705ZM210.981 90.4997C226.073 91.0586 237.824 89.6225 245.809 88.0438C249.801 87.2545 252.852 86.4296 254.907 85.8006C255.935 85.4862 256.714 85.2207 257.238 85.0332C257.5 84.9394 257.698 84.8651 257.832 84.814C257.899 84.7884 257.949 84.7686 257.983 84.755C258.001 84.7482 258.014 84.7429 258.023 84.7393C258.027 84.7375 258.031 84.7361 258.033 84.7351C258.034 84.7346 258.035 84.7342 258.036 84.7339C258.036 84.7338 258.037 84.7336 258.037 84.7336C258.037 84.7334 258.037 84.7334 257.848 84.2705C257.659 83.8077 257.659 83.8076 257.659 83.8076C257.659 83.8076 257.659 83.8077 257.659 83.8077C257.659 83.8078 257.658 83.8081 257.657 83.8084C257.656 83.8091 257.653 83.8101 257.649 83.8116C257.642 83.8146 257.631 83.8191 257.615 83.8252C257.584 83.8375 257.537 83.856 257.474 83.8802C257.347 83.9288 257.156 84.0005 256.901 84.0917C256.392 84.2741 255.627 84.5346 254.615 84.8444C252.59 85.4639 249.572 86.2804 245.615 87.0628C237.7 88.6276 226.027 90.0562 211.019 89.5003L210.981 90.4997ZM257.848 84.7705H271.784V83.7705H257.848V84.7705ZM271.591 84.7318L343.178 114.648L343.563 113.725L271.976 83.8092L271.591 84.7318ZM343.004 114.527L350.25 122.331L350.983 121.65L343.737 113.846L343.004 114.527ZM350.206 122.275L415.549 216.478L416.371 215.908L351.028 121.705L350.206 122.275ZM415.651 215.799L343.062 272.655L343.679 273.442L416.268 216.586L415.651 215.799ZM343.749 272.722L323.019 248.689L322.262 249.343L342.992 273.375L343.749 272.722ZM322.141 249.016V413.5H323.141V249.016H322.141ZM322.641 413H94.6507V414H322.641V413ZM95.1507 413.5V249.08H94.1507V413.5H95.1507ZM94.3123 248.712L68.2282 272.681L68.9048 273.417L94.989 249.448L94.3123 248.712ZM68.8884 272.666L1.32193 215.81L0.678072 216.575L68.2446 273.431L68.8884 272.666ZM144 84.2705C143.53 84.4421 143.531 84.4426 143.531 84.4432C143.531 84.4436 143.531 84.4443 143.531 84.4449C143.532 84.4463 143.533 84.4481 143.533 84.4504C143.535 84.4549 143.537 84.4611 143.54 84.469C143.546 84.4848 143.555 84.5075 143.567 84.5368C143.59 84.5953 143.624 84.6803 143.671 84.7901C143.765 85.0097 143.908 85.3284 144.109 85.733C144.51 86.5422 145.142 87.6948 146.068 89.0839C147.922 91.8624 150.956 95.5861 155.686 99.3995C165.153 107.031 181.381 114.994 208.472 116.499L208.528 115.501C181.619 114.006 165.597 106.105 156.314 98.621C151.669 94.877 148.703 91.2309 146.9 88.5289C145.999 87.1777 145.388 86.0624 145.005 85.2887C144.813 84.9018 144.677 84.6004 144.591 84.3977C144.548 84.2963 144.517 84.2196 144.497 84.1693C144.487 84.1441 144.48 84.1255 144.475 84.1137C144.473 84.1078 144.471 84.1036 144.47 84.1011C144.47 84.0999 144.47 84.0991 144.47 84.0987C144.469 84.0985 144.469 84.0985 144.469 84.0985C144.47 84.0986 144.47 84.0989 144 84.2705ZM208.472 116.499C235.592 118.006 251.549 110.037 260.729 101.629C265.314 97.4308 268.194 93.1357 269.93 89.8857C270.798 88.2606 271.38 86.8962 271.746 85.9348C271.93 85.4541 272.059 85.074 272.142 84.8122C272.184 84.6813 272.215 84.58 272.235 84.5105C272.245 84.4758 272.253 84.449 272.258 84.4304C272.261 84.4211 272.263 84.4139 272.264 84.4087C272.265 84.4062 272.265 84.4041 272.266 84.4026C272.266 84.4018 272.266 84.4011 272.266 84.4007C272.266 84.4001 272.267 84.3996 271.784 84.2705C271.301 84.1414 271.301 84.1412 271.301 84.1411C271.301 84.1412 271.301 84.1413 271.3 84.1416C271.3 84.1422 271.3 84.1433 271.3 84.1449C271.299 84.1482 271.297 84.1535 271.295 84.1609C271.291 84.1757 271.284 84.1987 271.275 84.2295C271.257 84.2913 271.229 84.3846 271.19 84.5074C271.111 84.7529 270.988 85.116 270.812 85.579C270.459 86.5052 269.894 87.8306 269.048 89.4145C267.356 92.5826 264.541 96.7823 260.054 100.892C251.093 109.098 235.408 116.994 208.528 115.501L208.472 116.499Z" fill="black"/>
<path d="M303.5 6.49591L303.202 4.01372L303.5 6.49591ZM210.847 123.77C211.548 124.959 213.081 125.355 214.27 124.653L233.651 113.224C234.84 112.522 235.235 110.989 234.534 109.8C233.833 108.611 232.3 108.215 231.111 108.917L213.883 119.077L203.724 101.849C203.022 100.66 201.489 100.265 200.3 100.966C199.111 101.667 198.715 103.2 199.417 104.389L210.847 123.77ZM408.416 138.359C399.681 105.412 389.604 70.0603 373.764 43.8909C365.826 30.7768 356.355 19.819 344.738 12.6286C333.071 5.4079 319.375 2.07303 303.202 4.01372L303.798 8.9781C318.875 7.16879 331.429 10.2719 342.106 16.8801C352.832 23.5186 361.799 33.7806 369.486 46.48C384.896 71.9376 394.819 106.588 403.584 139.641L408.416 138.359ZM303.202 4.01372C286.861 5.97461 272.908 14.5255 261.239 26.0033C249.576 37.4754 240.075 51.9837 232.602 66.1435C225.12 80.3171 219.621 94.2365 215.992 104.603C214.176 109.79 212.827 114.095 211.929 117.11C211.48 118.617 211.145 119.802 210.92 120.613C210.808 121.019 210.724 121.331 210.667 121.543C210.639 121.65 210.617 121.731 210.602 121.787C210.595 121.814 210.59 121.836 210.586 121.851C210.584 121.858 210.582 121.864 210.581 121.868C210.581 121.87 210.58 121.872 210.58 121.873C210.58 121.874 210.579 121.875 213 122.5C215.421 123.125 215.421 123.125 215.421 123.125C215.421 123.124 215.421 123.123 215.421 123.122C215.422 123.12 215.423 123.116 215.425 123.11C215.428 123.098 215.432 123.08 215.439 123.056C215.451 123.007 215.471 122.933 215.498 122.834C215.551 122.635 215.631 122.337 215.739 121.946C215.955 121.164 216.282 120.011 216.721 118.536C217.599 115.588 218.925 111.358 220.711 106.255C224.286 96.0427 229.692 82.3673 237.023 68.4774C244.362 54.5737 253.58 40.5497 264.745 29.5679C275.904 18.5919 288.889 10.7672 303.798 8.9781L303.202 4.01372Z" fill="url(#paint2_linear_262_4)"/>
<rect x="336.5" y="70.5" width="68" height="68" fill="url(#paint3_linear_262_4)" stroke="black" stroke-width="3"/>
<rect x="142" y="179" width="71" height="71" fill="url(#paint4_linear_262_4)" fill-opacity="0.4"/>
<rect x="143.5" y="180.5" width="68" height="68" stroke="black" stroke-opacity="0.1" stroke-width="3"/>
<rect x="336.5" y="138.5" width="68" height="68" fill="url(#paint5_linear_262_4)" stroke="black" stroke-width="3"/>
<rect x="142" y="247" width="71" height="71" fill="url(#paint6_linear_262_4)" fill-opacity="0.4"/>
<rect x="143.5" y="248.5" width="68" height="68" stroke="black" stroke-opacity="0.1" stroke-width="3"/>
<rect x="404.5" y="70.5" width="68" height="68" fill="url(#paint7_linear_262_4)" stroke="black" stroke-width="3"/>
<rect x="210" y="179" width="71" height="71" fill="url(#paint8_linear_262_4)" fill-opacity="0.4"/>
<rect x="211.5" y="180.5" width="68" height="68" stroke="black" stroke-opacity="0.1" stroke-width="3"/>
<rect x="404.5" y="138.5" width="68" height="68" fill="url(#paint9_linear_262_4)" stroke="black" stroke-width="3"/>
<rect x="210" y="247" width="71" height="71" fill="url(#paint10_linear_262_4)" fill-opacity="0.4"/>
<rect x="211.5" y="248.5" width="68" height="68" stroke="black" stroke-opacity="0.1" stroke-width="3"/>
<path d="M235 115C226 116 217.5 117 204.5 116.5C204.5 116.5 205.5 125 213.5 125C221.5 125 235 115 235 115Z" fill="#9E10FF"/>
<defs>
<linearGradient id="paint0_linear_262_4" x1="208.755" y1="82.9715" x2="7.25124" y2="403.483" gradientUnits="userSpaceOnUse">
<stop stop-color="#AD00FF"/>
<stop offset="1" stop-color="#00B2FF"/>
</linearGradient>
<linearGradient id="paint1_linear_262_4" x1="213" y1="97" x2="186.5" y2="129.5" gradientUnits="userSpaceOnUse">
<stop stop-color="#8D0088"/>
<stop offset="0.589054" stop-color="#0A0079"/>
</linearGradient>
<linearGradient id="paint2_linear_262_4" x1="362" y1="68.5" x2="301.199" y2="6.53849" gradientUnits="userSpaceOnUse">
<stop stop-color="#46005F"/>
<stop offset="1" stop-color="#5EF5FF"/>
</linearGradient>
<linearGradient id="paint3_linear_262_4" x1="370.5" y1="69" x2="370.5" y2="140" gradientUnits="userSpaceOnUse">
<stop stop-color="#B85EFF"/>
<stop offset="1" stop-color="#6BE4FF"/>
</linearGradient>
<linearGradient id="paint4_linear_262_4" x1="177.5" y1="179" x2="177.5" y2="250" gradientUnits="userSpaceOnUse">
<stop stop-color="#B85EFF"/>
<stop offset="1" stop-color="#6BE4FF"/>
</linearGradient>
<linearGradient id="paint5_linear_262_4" x1="370.5" y1="137" x2="370.5" y2="208" gradientUnits="userSpaceOnUse">
<stop stop-color="#B85EFF"/>
<stop offset="1" stop-color="#6BE4FF"/>
</linearGradient>
<linearGradient id="paint6_linear_262_4" x1="177.5" y1="247" x2="177.5" y2="318" gradientUnits="userSpaceOnUse">
<stop stop-color="#B85EFF"/>
<stop offset="1" stop-color="#6BE4FF"/>
</linearGradient>
<linearGradient id="paint7_linear_262_4" x1="438.5" y1="69" x2="438.5" y2="140" gradientUnits="userSpaceOnUse">
<stop stop-color="#B85EFF"/>
<stop offset="1" stop-color="#6BE4FF"/>
</linearGradient>
<linearGradient id="paint8_linear_262_4" x1="245.5" y1="179" x2="245.5" y2="250" gradientUnits="userSpaceOnUse">
<stop stop-color="#B85EFF"/>
<stop offset="1" stop-color="#6BE4FF"/>
</linearGradient>
<linearGradient id="paint9_linear_262_4" x1="438.5" y1="137" x2="438.5" y2="208" gradientUnits="userSpaceOnUse">
<stop stop-color="#B85EFF"/>
<stop offset="1" stop-color="#6BE4FF"/>
</linearGradient>
<linearGradient id="paint10_linear_262_4" x1="245.5" y1="247" x2="245.5" y2="318" gradientUnits="userSpaceOnUse">
<stop stop-color="#B85EFF"/>
<stop offset="1" stop-color="#6BE4FF"/>
</linearGradient>
</defs>
</svg>
