<svg width="417" height="331" viewBox="0 0 417 331" fill="none" xmlns="http://www.w3.org/2000/svg">
<path d="M138 3.5C133.541 3.5 150.872 43.9028 212.936 43.1459C275 42.389 281.493 2.99999 277.5 3M157.785 1.49143C155.674 0.385713 148.976 1.49142 144.517 1.49142C140.057 1.49142 162 32 212.936 32.6373C263.872 33.2747 275.344 1.49142 271.35 1.49143C267.357 1.49145 257.738 1.49142 257.738 1.49142C257.738 1.49142 240.389 9.36491 211 8.5C181.611 7.63509 159.896 2.59716 157.785 1.49143Z" stroke="black" stroke-width="2"/>
<path fill-rule="evenodd" clip-rule="evenodd" d="M68.5665 38.9903L1 133.193L68.5665 190.049L94.6507 166.08V330.5H322.641V166.016L343.37 190.049L415.96 133.193L350.617 38.9903L343.37 31.1865L271.784 1.27051C271.784 1.27051 262.5 36 208.5 33C154.5 30 144 1.27051 144 1.27051L76.3703 31.1865L68.5665 38.9903Z" fill="url(#paint0_linear_262_8)"/>
<path d="M148.055 1.27051H144C144 1.27051 154.5 30 208.5 33C262.5 36 271.784 1.27051 271.784 1.27051H257.848C257.848 1.27051 241.1 8.11482 211 7C180.9 5.88518 157.232 1.27051 157.232 1.27051H148.055Z" fill="url(#paint1_linear_262_8)"/>
<path d="M1 133.193L0.593703 132.901L0.323992 133.277L0.678072 133.575L1 133.193ZM68.5665 38.9903L68.213 38.6367L68.184 38.6656L68.1602 38.6989L68.5665 38.9903ZM76.3703 31.1865L76.168 30.7293L76.0827 30.767L76.0167 30.833L76.3703 31.1865ZM144 1.27051V0.770508H143.894L143.798 0.813247L144 1.27051ZM157.232 1.27051L157.328 0.779749L157.28 0.770508H157.232V1.27051ZM257.848 1.27051V0.770508H257.75L257.659 0.807665L257.848 1.27051ZM271.784 1.27051L271.976 0.809171L271.884 0.770508H271.784V1.27051ZM343.37 31.1865L343.737 30.8463L343.663 30.7669L343.563 30.7252L343.37 31.1865ZM350.617 38.9903L351.028 38.7053L351.007 38.6761L350.983 38.6501L350.617 38.9903ZM415.96 133.193L416.268 133.586L416.639 133.296L416.371 132.908L415.96 133.193ZM343.37 190.049L342.992 190.375L343.303 190.736L343.679 190.442L343.37 190.049ZM322.641 166.016L323.019 165.689L322.141 164.671V166.016H322.641ZM322.641 330.5V331H323.141V330.5H322.641ZM94.6507 330.5H94.1507V331H94.6507V330.5ZM94.6507 166.08H95.1507V164.942L94.3123 165.712L94.6507 166.08ZM68.5665 190.049L68.2446 190.431L68.581 190.714L68.9048 190.417L68.5665 190.049ZM1.4063 133.484L68.9728 39.2817L68.1602 38.6989L0.593703 132.901L1.4063 133.484ZM68.9201 39.3438L76.7238 31.5401L76.0167 30.833L68.213 38.6367L68.9201 39.3438ZM76.5725 31.6438L144.202 1.72777L143.798 0.813247L76.168 30.7293L76.5725 31.6438ZM144 1.77051H148.055V0.770508H144V1.77051ZM148.055 1.77051H157.232V0.770508H148.055V1.77051ZM157.232 1.27051C157.136 1.76127 157.136 1.76129 157.137 1.76134C157.137 1.76138 157.137 1.76144 157.137 1.76151C157.138 1.76167 157.139 1.76189 157.141 1.76218C157.144 1.76276 157.148 1.76363 157.154 1.76476C157.166 1.76703 157.183 1.7704 157.206 1.77483C157.253 1.78369 157.321 1.79681 157.412 1.81395C157.594 1.84821 157.864 1.89853 158.218 1.96291C158.926 2.09166 159.971 2.27668 161.318 2.50211C164.012 2.95296 167.916 3.56548 172.762 4.21279C182.453 5.50734 195.912 6.94151 210.981 7.49966L211.019 6.50034C195.988 5.94367 182.563 4.51309 172.895 3.2216C168.061 2.57589 164.167 1.96507 161.483 1.51583C160.141 1.29121 159.101 1.107 158.397 0.979037C158.045 0.915056 157.777 0.865138 157.598 0.831263C157.508 0.814325 157.44 0.801399 157.395 0.79273C157.372 0.788396 157.355 0.785127 157.344 0.782953C157.338 0.781866 157.334 0.781053 157.331 0.780518C157.33 0.78025 157.329 0.780052 157.328 0.779924C157.328 0.779859 157.328 0.779816 157.328 0.779784C157.328 0.779758 157.328 0.779749 157.232 1.27051ZM210.981 7.49966C226.073 8.05861 237.824 6.62249 245.809 5.04382C249.801 4.2545 252.852 3.42957 254.907 2.80064C255.935 2.48617 256.714 2.2207 257.238 2.03317C257.5 1.93941 257.698 1.86513 257.832 1.81395C257.899 1.78836 257.949 1.76855 257.983 1.75497C258.001 1.74818 258.014 1.74294 258.023 1.73932C258.027 1.73751 258.031 1.7361 258.033 1.7351C258.034 1.7346 258.035 1.73421 258.036 1.73392C258.036 1.73377 258.037 1.73363 258.037 1.73356C258.037 1.73344 258.037 1.73335 257.848 1.27051C257.659 0.807665 257.659 0.807628 257.659 0.807617C257.659 0.807647 257.659 0.807662 257.659 0.807724C257.659 0.807848 257.658 0.808075 257.657 0.808405C257.656 0.809065 257.653 0.810135 257.649 0.81161C257.642 0.814559 257.631 0.819124 257.615 0.825248C257.584 0.837496 257.537 0.85598 257.474 0.880249C257.347 0.928787 257.156 1.00047 256.901 1.09167C256.392 1.27409 255.627 1.53462 254.615 1.84439C252.59 2.46392 249.572 3.2804 245.615 4.06281C237.7 5.62759 226.027 7.05622 211.019 6.50034L210.981 7.49966ZM257.848 1.77051H271.784V0.770508H257.848V1.77051ZM271.591 1.73184L343.178 31.6479L343.563 30.7252L271.976 0.809171L271.591 1.73184ZM343.004 31.5267L350.25 39.3305L350.983 38.6501L343.737 30.8463L343.004 31.5267ZM350.206 39.2753L415.549 133.478L416.371 132.908L351.028 38.7053L350.206 39.2753ZM415.651 132.799L343.062 189.655L343.679 190.442L416.268 133.586L415.651 132.799ZM343.749 189.722L323.019 165.689L322.262 166.343L342.992 190.375L343.749 189.722ZM322.141 166.016V330.5H323.141V166.016H322.141ZM322.641 330H94.6507V331H322.641V330ZM95.1507 330.5V166.08H94.1507V330.5H95.1507ZM94.3123 165.712L68.2282 189.681L68.9048 190.417L94.989 166.448L94.3123 165.712ZM68.8884 189.666L1.32193 132.81L0.678072 133.575L68.2446 190.431L68.8884 189.666ZM144 1.27051C143.53 1.44214 143.531 1.44263 143.531 1.44322C143.531 1.44356 143.531 1.44426 143.531 1.44495C143.532 1.44632 143.533 1.44813 143.533 1.45037C143.535 1.45485 143.537 1.46106 143.54 1.46898C143.546 1.48482 143.555 1.50748 143.567 1.53676C143.59 1.5953 143.624 1.68031 143.671 1.7901C143.765 2.00968 143.908 2.32844 144.109 2.73302C144.51 3.54218 145.142 4.69476 146.068 6.08385C147.922 8.86239 150.956 12.5861 155.686 16.3995C165.153 24.0305 181.381 31.9942 208.472 33.4992L208.528 32.5008C181.619 31.0058 165.597 23.1047 156.314 15.621C151.669 11.877 148.703 8.23087 146.9 5.52888C145.999 4.17771 145.388 3.06236 145.005 2.28865C144.813 1.90181 144.677 1.6004 144.591 1.39767C144.548 1.29631 144.517 1.21963 144.497 1.16927C144.487 1.1441 144.48 1.1255 144.475 1.1137C144.473 1.1078 144.471 1.1036 144.47 1.10112C144.47 1.09988 144.47 1.09907 144.47 1.09869C144.469 1.0985 144.469 1.09855 144.469 1.09846C144.47 1.09861 144.47 1.09887 144 1.27051ZM208.472 33.4992C235.592 35.0059 251.549 27.0368 260.729 18.629C265.314 14.4308 268.194 10.1357 269.93 6.88569C270.798 5.26063 271.38 3.89624 271.746 2.93484C271.93 2.45409 272.059 2.07396 272.142 1.81222C272.184 1.68134 272.215 1.58004 272.235 1.51054C272.245 1.47579 272.253 1.44899 272.258 1.43041C272.261 1.42112 272.263 1.41389 272.264 1.40875C272.265 1.40618 272.265 1.40413 272.266 1.40261C272.266 1.40185 272.266 1.4011 272.266 1.40072C272.266 1.40011 272.267 1.39963 271.784 1.27051C271.301 1.14139 271.301 1.14117 271.301 1.14109C271.301 1.14124 271.301 1.14128 271.3 1.14158C271.3 1.14217 271.3 1.14328 271.3 1.14492C271.299 1.14818 271.297 1.15353 271.295 1.16092C271.291 1.17571 271.284 1.19867 271.275 1.22954C271.257 1.29128 271.229 1.38463 271.19 1.50739C271.111 1.75291 270.988 2.116 270.812 2.57903C270.459 3.50517 269.894 4.83059 269.048 6.41454C267.356 9.58256 264.541 13.7823 260.054 17.8915C251.093 26.0985 235.408 33.9941 208.528 32.5008L208.472 33.4992Z" fill="black"/>
<g clip-path="url(#clip0_262_8)">
<path d="M142.367 159.854C142.367 139.364 151.682 120.419 167.919 107.878C171.026 105.478 171.599 101.014 169.2 97.9049C166.798 94.7979 162.335 94.2206 159.224 96.6243C139.475 111.88 128.148 134.925 128.148 159.854C128.148 169.627 129.892 179.168 133.332 188.218C134.411 191.057 137.113 192.802 139.979 192.802C140.819 192.802 141.672 192.653 142.503 192.337C146.174 190.942 148.018 186.836 146.623 183.166C143.8 175.736 142.367 167.893 142.367 159.854Z" fill="white"/>
<path d="M208.001 80C199.417 80 190.97 81.3575 182.895 84.0311C179.165 85.2644 177.145 89.2876 178.379 93.0152C179.612 96.7429 183.635 98.7604 187.363 97.531C193.997 95.3342 200.942 94.221 208.003 94.221C244.192 94.221 273.635 123.664 273.635 159.855C273.635 196.048 244.192 225.494 208.003 225.494C199.582 225.494 191.424 223.887 183.793 220.851L192.346 219.712C196.239 219.192 198.973 215.618 198.455 211.725C197.935 207.83 194.336 205.105 190.468 205.615L163.153 209.256C159.26 209.776 156.525 213.35 157.043 217.243C157.091 217.596 157.181 217.929 157.276 218.262C157.305 219.32 157.55 220.384 158.068 221.371L171.119 246.197C172.391 248.619 174.86 250.002 177.417 250.002C178.532 250.002 179.665 249.738 180.719 249.184C184.197 247.356 185.533 243.059 183.706 239.583L181.397 235.194C189.849 238.181 198.806 239.715 208.001 239.715C252.031 239.715 287.852 203.891 287.852 159.857C287.852 115.822 252.029 80 208.001 80Z" fill="white"/>
<path d="M204.719 152.017C204.719 145.943 199.641 141.912 193.27 141.912C188.689 141.912 185.005 143.057 182.217 144.45C181.47 144.848 181.121 145.447 181.121 146.294C181.121 147.389 181.917 148.233 183.013 148.233C183.411 148.233 183.86 148.034 183.958 147.984C186.199 146.989 189.087 146.193 192.472 146.193C198.246 146.193 200.337 148.832 200.337 152.366C200.337 160.481 180.424 164.065 180.424 174.57C180.424 176.115 181.519 177.159 183.062 177.159H202.279C203.473 177.159 204.421 176.263 204.421 175.067C204.421 173.873 203.475 172.927 202.279 172.927H184.953C187.643 167.101 204.719 162.272 204.719 152.017Z" fill="white"/>
<path d="M230.002 177.405C231.248 177.405 232.292 176.41 232.292 175.165V168.394H236.077C237.221 168.394 238.116 167.546 238.116 166.402C238.116 165.257 237.221 164.361 236.077 164.361H232.292V145.043C232.292 143.449 231.147 142.156 229.403 142.156H228.408C227.412 142.156 226.468 142.653 225.918 143.352L210.284 163.316C209.938 163.768 209.689 164.463 209.689 165.109V165.558C209.689 167.152 210.984 168.396 212.578 168.396H227.76V175.167C227.76 176.412 228.757 177.405 230.002 177.405ZM214.518 164.363L227.76 147.287V164.363H214.518Z" fill="white"/>
<path d="M178.477 127.796C186.348 120.926 196.444 117.143 206.906 117.143C230.755 117.143 250.158 136.549 250.158 160.401C250.158 162.363 251.752 163.957 253.714 163.957C255.676 163.957 257.27 162.363 257.27 160.401C257.27 132.629 234.676 110.034 206.906 110.034C194.724 110.034 182.969 114.44 173.802 122.441C172.322 123.731 172.171 125.977 173.461 127.457C174.754 128.932 177 129.086 178.477 127.796Z" fill="white"/>
</g>
<defs>
<linearGradient id="paint0_linear_262_8" x1="208.755" y1="-0.0285177" x2="7.25124" y2="320.483" gradientUnits="userSpaceOnUse">
<stop stop-color="#AD00FF"/>
<stop offset="1" stop-color="#00B2FF"/>
</linearGradient>
<linearGradient id="paint1_linear_262_8" x1="213" y1="14" x2="186.5" y2="46.5" gradientUnits="userSpaceOnUse">
<stop stop-color="#8D0088"/>
<stop offset="0.589054" stop-color="#0A0079"/>
</linearGradient>
<clipPath id="clip0_262_8">
<rect width="170" height="170" fill="white" transform="translate(123 80)"/>
</clipPath>
</defs>
</svg>
